<svg width="214" height="38" viewBox="0 0 214 38" fill="none" xmlns="http://www.w3.org/2000/svg">
<path d="M3.48749 30V7.71253H26.0507V12.4652H9.66764V16.1474H25.2072V20.9001H9.66764V25.2473H26.2778V30H3.48749ZM46.8459 18.5643L57.4219 30H50.2036L43.2286 22.4897L36.2861 30H29.084L39.6438 18.5643L29.6031 7.71253H36.8214L43.2286 14.6875L49.6683 7.71253H56.8866L46.8459 18.5643ZM90.042 18.8725C90.042 20.7865 89.6906 22.4789 88.9877 23.9496C88.2848 25.4095 87.2791 26.6315 85.9706 27.6155C84.6621 28.5996 83.0725 29.3458 81.2017 29.854C79.3417 30.3515 77.2492 30.6002 74.9242 30.6002C72.5992 30.6002 70.4959 30.3515 68.6143 29.854C66.7435 29.3458 65.1484 28.5996 63.8291 27.6155C62.5098 26.6315 61.4933 25.4095 60.7796 23.9496C60.0659 22.4789 59.709 20.7865 59.709 18.8725C59.709 16.9584 60.0659 15.2715 60.7796 13.8116C61.4933 12.3409 62.5098 11.1135 63.8291 10.1294C65.1484 9.14537 66.7435 8.40462 68.6143 7.90718C70.4959 7.39892 72.5992 7.1448 74.9242 7.1448C77.2492 7.1448 79.3417 7.39892 81.2017 7.90718C83.0725 8.40462 84.6621 9.14537 85.9706 10.1294C87.2791 11.1135 88.2848 12.3409 88.9877 13.8116C89.6906 15.2715 90.042 16.9584 90.042 18.8725ZM83.9592 18.8725C83.9592 18.0398 83.824 17.2125 83.5537 16.3907C83.2942 15.558 82.8238 14.8119 82.1425 14.1522C81.472 13.4926 80.5528 12.9573 79.3849 12.5463C78.217 12.1354 76.7301 11.93 74.9242 11.93C73.713 11.93 72.6479 12.0273 71.7287 12.2219C70.8095 12.4058 70.0147 12.6653 69.3442 13.0005C68.6737 13.3358 68.1114 13.7305 67.6572 14.1847C67.2031 14.628 66.8408 15.1092 66.5704 15.6283C66.3001 16.1366 66.1054 16.6719 65.9865 17.2342C65.8784 17.7857 65.8243 18.3318 65.8243 18.8725C65.8243 19.424 65.8784 19.9809 65.9865 20.5432C66.1054 21.1056 66.3001 21.6463 66.5704 22.1653C66.8408 22.6736 67.2031 23.1494 67.6572 23.5928C68.1114 24.0361 68.6737 24.4254 69.3442 24.7607C70.0147 25.0851 70.8095 25.3446 71.7287 25.5393C72.6479 25.7231 73.713 25.815 74.9242 25.815C76.7301 25.815 78.217 25.6096 79.3849 25.1986C80.5528 24.7877 81.472 24.2524 82.1425 23.5928C82.8238 22.9331 83.2942 22.1924 83.5537 21.3705C83.824 20.5378 83.9592 19.7052 83.9592 18.8725ZM116.579 30L101.543 14.6875V30H95.5247V7.71253H102.062L117.115 23.0899V7.71253H123.1V30H116.579ZM142.565 12.5626V30H136.547V12.5626H127.091V7.71253H152.038V12.5626H142.565ZM182.339 22.4897C182.339 23.6036 182.063 24.6525 181.512 25.6366C180.96 26.6207 180.133 27.4804 179.03 28.2157C177.927 28.9511 176.548 29.535 174.893 29.9676C173.25 30.3893 171.325 30.6002 169.119 30.6002C166.913 30.6002 164.977 30.3893 163.312 29.9676C161.657 29.535 160.278 28.9511 159.175 28.2157C158.072 27.4804 157.245 26.6207 156.694 25.6366C156.142 24.6525 155.866 23.6036 155.866 22.4897V7.71253H161.868V20.3324C161.868 21.0785 161.96 21.7868 162.144 22.4573C162.338 23.1169 162.695 23.6955 163.214 24.1929C163.744 24.6904 164.48 25.0851 165.42 25.3771C166.372 25.669 167.605 25.815 169.119 25.815C170.622 25.815 171.844 25.669 172.785 25.3771C173.725 25.0851 174.455 24.6904 174.975 24.1929C175.504 23.6955 175.861 23.1169 176.045 22.4573C176.229 21.7868 176.321 21.0785 176.321 20.3324V7.71253H182.339V22.4897ZM209.687 13.99C209.265 13.7845 208.709 13.552 208.016 13.2925C207.324 13.033 206.54 12.7897 205.664 12.5626C204.788 12.3247 203.837 12.13 202.81 11.9786C201.782 11.8164 200.728 11.7353 199.646 11.7353C198.781 11.7353 198.041 11.7623 197.424 11.8164C196.819 11.8705 196.305 11.9408 195.883 12.0273C195.472 12.1138 195.142 12.2165 194.894 12.3355C194.656 12.4436 194.472 12.5572 194.342 12.6761C194.212 12.7951 194.126 12.914 194.083 13.033C194.05 13.1519 194.034 13.2601 194.034 13.3574C194.034 13.6818 194.196 13.9684 194.521 14.2171C194.845 14.455 195.288 14.6713 195.851 14.8659C196.413 15.0498 197.067 15.2282 197.813 15.4012C198.56 15.5634 199.349 15.7365 200.182 15.9203C201.025 16.0933 201.89 16.288 202.777 16.5042C203.675 16.7097 204.54 16.953 205.372 17.2342C206.216 17.5153 207.011 17.8452 207.757 18.2237C208.503 18.5913 209.157 19.0239 209.72 19.5213C210.282 20.0188 210.725 20.5919 211.05 21.2407C211.374 21.8896 211.536 22.6303 211.536 23.463C211.536 24.5336 211.347 25.4528 210.969 26.2205C210.59 26.9883 210.082 27.6372 209.444 28.167C208.817 28.6969 208.087 29.1241 207.254 29.4485C206.421 29.7621 205.545 30.0054 204.626 30.1784C203.718 30.3515 202.793 30.465 201.852 30.5191C200.922 30.5731 200.036 30.6002 199.192 30.6002C196.986 30.6002 194.942 30.4163 193.061 30.0487C191.19 29.6918 189.535 29.243 188.097 28.7023V23.3819C189.579 24.2037 191.266 24.8472 193.158 25.3122C195.061 25.7772 197.094 26.0097 199.257 26.0097C200.533 26.0097 201.571 25.9448 202.372 25.815C203.183 25.6744 203.815 25.5014 204.269 25.2959C204.724 25.0797 205.032 24.8472 205.194 24.5985C205.356 24.3497 205.437 24.1118 205.437 23.8847C205.437 23.5279 205.275 23.2197 204.951 22.9601C204.626 22.6898 204.183 22.4573 203.621 22.2626C203.058 22.0572 202.404 21.8733 201.658 21.7111C200.912 21.5381 200.117 21.3705 199.273 21.2083C198.441 21.0353 197.581 20.8514 196.694 20.6568C195.808 20.4621 194.942 20.235 194.099 19.9755C193.266 19.7052 192.477 19.397 191.731 19.0509C190.985 18.6941 190.33 18.2777 189.768 17.8019C189.206 17.3153 188.762 16.7584 188.438 16.1312C188.113 15.4931 187.951 14.7578 187.951 13.9251C187.951 12.9411 188.124 12.0922 188.47 11.3784C188.816 10.6647 189.281 10.0591 189.865 9.56171C190.46 9.05345 191.141 8.64252 191.909 8.32892C192.688 8.01532 193.504 7.772 194.358 7.59898C195.213 7.42596 196.078 7.30701 196.954 7.24212C197.83 7.17724 198.662 7.1448 199.452 7.1448C200.317 7.1448 201.204 7.18805 202.112 7.27456C203.031 7.36108 203.934 7.48544 204.821 7.64764C205.708 7.79904 206.562 7.97747 207.384 8.18293C208.216 8.3884 208.984 8.60468 209.687 8.83177V13.99Z" fill="white"/>
<line x1="60" y1="1.5" x2="155" y2="1.49999" stroke="url(#paint0_linear_68_190)" stroke-width="3"/>
<line x1="155" y1="35.5" x2="211" y2="35.5" stroke="url(#paint1_linear_68_190)" stroke-width="3"/>
<line x1="3.87573" y1="35.8276" x2="59.8757" y2="35.8276" stroke="url(#paint2_linear_68_190)" stroke-width="3"/>
<defs>
<linearGradient id="paint0_linear_68_190" x1="60" y1="3" x2="155" y2="3" gradientUnits="userSpaceOnUse">
<stop stop-color="#00F0FF"/>
<stop offset="1" stop-color="#D934D2"/>
</linearGradient>
<linearGradient id="paint1_linear_68_190" x1="155" y1="37" x2="211" y2="37" gradientUnits="userSpaceOnUse">
<stop stop-color="#00FFD1"/>
<stop offset="1" stop-color="#FA00FF"/>
</linearGradient>
<linearGradient id="paint2_linear_68_190" x1="3.87573" y1="37.3276" x2="59.8757" y2="37.3276" gradientUnits="userSpaceOnUse">
<stop stop-color="#00FFD1"/>
<stop offset="1" stop-color="#FA00FF"/>
</linearGradient>
</defs>
</svg>
